<svg width="114" height="109" viewBox="0 0 114 109" fill="none" xmlns="http://www.w3.org/2000/svg">
<ellipse cx="57" cy="54.5" rx="57" ry="54.5" fill="white"/>
<path d="M66.7403 84.775V78.3002H44.339V84.7808C44.3352 86.896 43.4922 88.9479 41.9468 90.6034L40.966 91.6573H70.0996L69.1154 90.6034C67.5758 88.9439 66.7389 86.8902 66.7403 84.775Z" fill="white" stroke="#2E353A" stroke-width="1.09543" stroke-linecap="round" stroke-linejoin="round"/>
<g style="mix-blend-mode:multiply">
<path d="M42.9617 89.3137H68.1175C67.2179 87.9239 66.7475 86.3621 66.7505 84.775V78.3002H44.339V84.7808C44.3376 86.3667 43.8638 87.9264 42.9617 89.3137Z" fill="#7159C1"/>
</g>
<path d="M66.7403 79.2697H44.339V82.0063H66.7403V79.2697Z" fill="#2E353A" stroke="#2E353A" stroke-width="1.09543" stroke-linecap="round" stroke-linejoin="round"/>
<path d="M97.3844 22.8102H13.6948C11.9414 22.8102 10.52 24.0211 10.52 25.5149V77.6335C10.52 79.1272 11.9414 80.3381 13.6948 80.3381H97.3844C99.1378 80.3381 100.559 79.1272 100.559 77.6335V25.5149C100.559 24.0211 99.1378 22.8102 97.3844 22.8102Z" fill="#2E353A" stroke="#2E353A" stroke-width="1.09543" stroke-linecap="round" stroke-linejoin="round"/>
<path d="M10.52 71.3974H100.559V77.6335C100.559 78.3508 100.225 79.0387 99.6293 79.5459C99.0339 80.0531 98.2264 80.3381 97.3844 80.3381H13.7119C12.8699 80.3381 12.0624 80.0531 11.467 79.5459C10.8716 79.0387 10.5371 78.3508 10.5371 77.6335V71.3974H10.52Z" fill="white" stroke="#2E353A" stroke-width="1.09543" stroke-linecap="round" stroke-linejoin="round"/>
<path d="M96.0277 26.3912H15.0481V67.0333H96.0277V26.3912Z" fill="#7159C1" stroke="#2E353A" stroke-width="1.09543" stroke-linecap="round" stroke-linejoin="round"/>
<path d="M57.1988 75.8692C57.1994 75.5892 57.1026 75.3154 56.9205 75.0823C56.7384 74.8493 56.4793 74.6675 56.1759 74.5599C55.8724 74.4524 55.5384 74.424 55.216 74.4782C54.8936 74.5325 54.5973 74.667 54.3647 74.8648C54.1321 75.0625 53.9736 75.3146 53.9092 75.5892C53.8448 75.8637 53.8775 76.1484 54.0031 76.4071C54.1287 76.6658 54.3416 76.8869 54.6148 77.0425C54.888 77.1981 55.2093 77.2812 55.5379 77.2812C55.7558 77.2816 55.9717 77.2453 56.1732 77.1746C56.3747 77.1038 56.5578 76.9998 56.7121 76.8687C56.8664 76.7375 56.9888 76.5817 57.0723 76.4102C57.1558 76.2387 57.1988 76.0549 57.1988 75.8692Z" fill="#2E353A" stroke="#2E353A" stroke-width="1.09543" stroke-linecap="round" stroke-linejoin="round"/>
<path d="M70.1064 91.6544H40.9762V92.8102H70.1064V91.6544Z" fill="white" stroke="#2E353A" stroke-width="1.09543" stroke-linecap="round" stroke-linejoin="round"/>
<path d="M89.9498 37.9124C91.1577 37.0935 92.0498 36.0863 92.5477 34.9794C93.0456 33.8724 93.134 32.6996 92.8052 31.5641L86.263 35.9919C85.8912 36.2421 85.3882 36.3825 84.8639 36.3825C84.3396 36.3825 83.8366 36.2421 83.4648 35.9919L78.0269 32.3115C77.8427 32.187 77.6965 32.0392 77.5968 31.8765C77.497 31.7137 77.4457 31.5393 77.4457 31.3631C77.4457 31.1869 77.497 31.0125 77.5968 30.8498C77.6965 30.687 77.8427 30.5392 78.0269 30.4147L84.5647 25.99C82.7325 25.7478 80.8378 25.8428 79.0783 26.2652C77.3188 26.6876 75.759 27.4218 74.5617 28.3912C73.3644 29.3606 72.5735 30.5297 72.2714 31.7766C71.9693 33.0234 72.1671 34.3023 72.8442 35.4797L55.9629 46.6429L54.3351 45.5382L56.9748 43.7516C57.1097 43.6586 57.1853 43.5335 57.1853 43.4032C57.1853 43.2729 57.1097 43.1478 56.9748 43.0548L54.9158 41.6613C54.7797 41.5695 54.5954 41.5179 54.4032 41.5179C54.2111 41.5179 54.0268 41.5695 53.8907 41.6613L52.8612 42.3581L50.6306 40.8514L51.4885 40.2707C51.6701 40.1474 51.7721 39.9804 51.7721 39.8062C51.7721 39.6321 51.6701 39.4651 51.4885 39.3417L33.0674 26.8743C32.6285 26.5769 32.1073 26.3409 31.5336 26.1799C30.9598 26.0188 30.3448 25.936 29.7237 25.936C29.1026 25.936 28.4876 26.0188 27.9138 26.1799C27.3401 26.3409 26.8189 26.5769 26.38 26.8743L24.497 28.1488C24.0576 28.4455 23.709 28.798 23.4711 29.1861C23.2333 29.5742 23.1109 29.9902 23.1109 30.4103C23.1109 30.8304 23.2333 31.2464 23.4711 31.6345C23.709 32.0225 24.0576 32.375 24.497 32.6718L42.9181 45.1422C43.1003 45.2651 43.3471 45.3341 43.6044 45.3341C43.8617 45.3341 44.1085 45.2651 44.2908 45.1422L45.1487 44.5615L47.3749 46.0712L46.3498 46.765C46.2819 46.8106 46.2281 46.8649 46.1914 46.9247C46.1546 46.9845 46.1357 47.0486 46.1357 47.1134C46.1357 47.1781 46.1546 47.2422 46.1914 47.302C46.2281 47.3618 46.2819 47.4161 46.3498 47.4618L48.4044 48.8553C48.5418 48.9466 48.7266 48.9977 48.9191 48.9977C49.1117 48.9977 49.2965 48.9466 49.4339 48.8553L52.0737 47.0687L53.6751 48.1526L39.6756 57.3833C37.9356 56.9253 36.046 56.7916 34.2038 56.9962C32.3615 57.2007 30.634 57.736 29.2015 58.5462C27.7689 59.3564 26.6837 60.4118 26.059 61.6025C25.4342 62.7932 25.2929 64.0755 25.6497 65.3157L32.1919 60.8909C32.3758 60.7662 32.5942 60.6673 32.8346 60.5998C33.0751 60.5323 33.3328 60.4976 33.5931 60.4976C33.8534 60.4976 34.1112 60.5323 34.3517 60.5998C34.5921 60.6673 34.8105 60.7662 34.9944 60.8909L40.4499 64.5475C40.6342 64.6719 40.7803 64.8198 40.8801 64.9825C40.9798 65.1452 41.0311 65.3197 41.0311 65.4958C41.0311 65.672 40.9798 65.8465 40.8801 66.0092C40.7803 66.1719 40.6342 66.3198 40.4499 66.4442L33.9121 70.869C35.7444 71.1108 37.639 71.0155 39.3983 70.5931C41.1577 70.1707 42.7175 69.4366 43.915 68.4674C45.1125 67.4981 45.904 66.3292 46.2069 65.0825C46.5097 63.8358 46.313 62.557 45.637 61.3792L59.6366 52.1486L78.7264 65.0537C78.4521 65.5322 78.3893 66.0543 78.5455 66.5565C78.7017 67.0587 79.0703 67.5194 79.6064 67.8824L84.2127 71L89.7386 67.2571L85.1323 64.1425C84.5959 63.7797 83.9152 63.5303 83.1732 63.4245C82.4311 63.3188 81.6596 63.3613 80.9526 63.547L61.8936 50.6478L78.7924 39.4966C80.6788 39.9933 82.738 40.108 84.719 39.8267C86.7 39.5455 88.5174 38.8804 89.9498 37.9124Z" fill="#2E353A" stroke="#2E353A" stroke-width="1.09543" stroke-linecap="round" stroke-linejoin="round"/>
<path d="M44.4756 59.7922L77.6178 37.9095C79.3587 38.3684 81.2498 38.5025 83.0935 38.2977C84.9372 38.0929 86.6658 37.5568 88.0986 36.7452C89.5314 35.9337 90.616 34.8767 91.2388 33.6845C91.8616 32.4923 91.9999 31.2088 91.6393 29.9681L85.1015 34.3929C84.9176 34.5176 84.6992 34.6165 84.4587 34.684C84.2183 34.7515 83.9605 34.7862 83.7002 34.7862C83.4399 34.7862 83.1821 34.7515 82.9417 34.684C82.7012 34.6165 82.4828 34.5176 82.2989 34.3929L76.861 30.7125C76.6769 30.5883 76.5308 30.4407 76.4312 30.2782C76.3315 30.1157 76.2802 29.9415 76.2802 29.7656C76.2802 29.5897 76.3315 29.4155 76.4312 29.253C76.5308 29.0905 76.6769 28.9429 76.861 28.8187L83.3988 24.391C81.5657 24.1492 79.6702 24.2449 77.9104 24.6682C76.1505 25.0914 74.5909 25.8267 73.3942 26.7972C72.1976 27.7677 71.4079 28.9378 71.1077 30.1854C70.8074 31.433 71.0075 32.7123 71.6871 33.8896L38.5449 55.7723C36.8051 55.3141 34.9156 55.1802 33.0733 55.3847C31.2311 55.5891 29.5036 56.1245 28.0713 56.9348C26.6389 57.7451 25.5541 58.8008 24.93 59.9916C24.306 61.1824 24.1655 62.4647 24.5234 63.7048L31.0612 59.28C31.2451 59.1553 31.4635 59.0564 31.7039 58.9889C31.9444 58.9214 32.2021 58.8867 32.4624 58.8867C32.7228 58.8867 32.9805 58.9214 33.221 58.9889C33.4614 59.0564 33.6798 59.1553 33.8637 59.28L39.3016 62.9604C39.4857 63.0846 39.6318 63.2322 39.7315 63.3946C39.8312 63.5571 39.8825 63.7313 39.8825 63.9073C39.8825 64.0832 39.8312 64.2574 39.7315 64.4199C39.6318 64.5824 39.4857 64.73 39.3016 64.8542L32.7506 69.273C34.5829 69.5148 36.4775 69.4195 38.2369 68.9971C39.9962 68.5747 41.556 67.8406 42.7535 66.8713C43.951 65.9021 44.7425 64.7332 45.0454 63.4865C45.3482 62.2398 45.1515 60.961 44.4756 59.7832V59.7922Z" fill="white" stroke="#2E353A" stroke-miterlimit="10"/>
<path d="M41.9238 57.4964C41.6704 57.3245 41.5282 57.0916 41.5282 56.8488C41.5282 56.6059 41.6704 56.373 41.9238 56.2011L71.7223 36.5814C71.977 36.4098 72.3219 36.3134 72.6814 36.3134C73.0409 36.3134 73.3857 36.4098 73.6405 36.5814C73.8941 36.7539 74.0365 36.9873 74.0365 37.2306C74.0365 37.4739 73.8941 37.7073 73.6405 37.8797L43.842 57.4964C43.5872 57.668 43.2424 57.7644 42.8829 57.7644C42.5234 57.7644 42.1786 57.668 41.9238 57.4964Z" fill="white" stroke="#2E353A" stroke-miterlimit="10"/>
<path d="M50.7614 42.3117L48.5339 43.8193L80.6735 65.5713L82.901 64.0638L50.7614 42.3117Z" fill="white" stroke="#2E353A" stroke-miterlimit="10"/>
<path d="M88.5727 65.6701L83.0468 69.41L78.4405 66.2954C77.7073 65.799 77.2954 65.1258 77.2954 64.4239C77.2954 63.722 77.7073 63.0489 78.4405 62.5525C78.8033 62.3069 79.234 62.112 79.7081 61.9791C80.1821 61.8462 80.6903 61.7778 81.2034 61.7778C81.7166 61.7778 82.2247 61.8462 82.6987 61.9791C83.1728 62.112 83.6036 62.3069 83.9664 62.5525L88.5727 65.6701Z" fill="white" stroke="#2E353A" stroke-miterlimit="10"/>
<path d="M47.7634 38.0787L42.2787 41.7907L46.7336 44.8058L52.2183 41.0938L47.7634 38.0787Z" fill="white" stroke="#2E353A" stroke-miterlimit="10"/>
<path d="M23.3412 26.5373L25.2265 25.2613C25.6652 24.9644 26.1861 24.7288 26.7594 24.5681C27.3327 24.4074 27.9471 24.3247 28.5677 24.3247C29.1882 24.3247 29.8026 24.4074 30.3759 24.5681C30.9492 24.7288 31.4701 24.9644 31.9089 25.2613L50.3321 37.7302C50.5136 37.853 50.6156 38.0196 50.6156 38.1934C50.6156 38.3671 50.5136 38.5337 50.3321 38.6566L43.1333 43.5287C42.9518 43.6516 42.7056 43.7206 42.4489 43.7206C42.1922 43.7206 41.946 43.6516 41.7645 43.5287L23.3412 31.0599C22.4551 30.4602 21.9572 29.6467 21.9572 28.7986C21.9572 27.9504 22.4551 27.137 23.3412 26.5373Z" fill="white" stroke="#2E353A" stroke-miterlimit="10"/>
<path d="M52.7311 40.0526L45.1901 45.1564C44.9066 45.3483 44.9066 45.6594 45.1901 45.8512L47.2495 47.2451C47.533 47.4369 47.9927 47.4369 48.2762 47.2451L55.8172 42.1413C56.1007 41.9494 56.1007 41.6384 55.8172 41.4465L53.7577 40.0526C53.4742 39.8608 53.0146 39.8608 52.7311 40.0526Z" fill="white" stroke="#2E353A" stroke-miterlimit="10"/>
<path d="M44.1632 41.6762L42.6497 42.7034L24.5586 30.4594C24.3573 30.3231 24.2443 30.1384 24.2443 29.9457C24.2443 29.7531 24.3573 29.5683 24.5586 29.4321C24.6579 29.3643 24.7762 29.3105 24.9064 29.2738C25.0367 29.237 25.1764 29.2181 25.3175 29.2181C25.4586 29.2181 25.5983 29.237 25.7285 29.2738C25.8588 29.3105 25.977 29.3643 26.0764 29.4321L44.1632 41.6762Z" fill="white" stroke="#2E353A" stroke-miterlimit="10"/>
<path d="M46.7457 39.9283L45.2235 40.9556L27.1323 28.7116C26.9311 28.5753 26.8181 28.3906 26.8181 28.1979C26.8181 28.0053 26.9311 27.8205 27.1323 27.6843C27.2317 27.6165 27.3499 27.5627 27.4802 27.526C27.6104 27.4892 27.7502 27.4703 27.8913 27.4703C28.0324 27.4703 28.1721 27.4892 28.3023 27.526C28.4326 27.5627 28.5508 27.6165 28.6502 27.6843L46.7457 39.9283Z" fill="white" stroke="#2E353A" stroke-miterlimit="10"/>
<path d="M49.3283 38.1804L47.806 39.1988L29.7149 26.9636C29.5137 26.8274 29.4006 26.6426 29.4006 26.45C29.4006 26.2574 29.5137 26.0726 29.7149 25.9364C29.8143 25.8686 29.9325 25.8148 30.0628 25.778C30.193 25.7413 30.3327 25.7224 30.4738 25.7224C30.6149 25.7224 30.7546 25.7413 30.8849 25.778C31.0151 25.8148 31.1334 25.8686 31.2328 25.9364L49.3283 38.1804Z" fill="white" stroke="#2E353A" stroke-miterlimit="10"/>
</svg>
