<svg width="93" height="72" viewBox="0 0 93 72" fill="none" xmlns="http://www.w3.org/2000/svg">
<path d="M57.7403 62.7749V56.3001H35.339V62.7808C35.3352 64.8959 34.4922 66.9479 32.9468 68.6034L31.966 69.6573H61.0996L60.1154 68.6034C58.5758 66.9439 57.7389 64.8902 57.7403 62.7749V62.7749Z" fill="white" stroke="#2E353A" stroke-width="1.09543" stroke-linecap="round" stroke-linejoin="round"/>
<g style="mix-blend-mode:multiply">
<path d="M33.9617 67.3137H59.1175C58.2179 65.9238 57.7475 64.3621 57.7505 62.7749V56.3001H35.339V62.7808C35.3376 64.3667 34.8638 65.9264 33.9617 67.3137V67.3137Z" fill="#7159C1"/>
</g>
<path d="M57.7403 57.2696H35.339V60.0063H57.7403V57.2696Z" fill="#2E353A" stroke="#2E353A" stroke-width="1.09543" stroke-linecap="round" stroke-linejoin="round"/>
<path d="M88.3844 0.810211H4.69481C2.94142 0.810211 1.52002 2.02111 1.52002 3.51484V55.6334C1.52002 57.1272 2.94142 58.3381 4.69481 58.3381H88.3844C90.1378 58.3381 91.5592 57.1272 91.5592 55.6334V3.51484C91.5592 2.02111 90.1378 0.810211 88.3844 0.810211Z" fill="#2E353A" stroke="#2E353A" stroke-width="1.09543" stroke-linecap="round" stroke-linejoin="round"/>
<path d="M1.52002 49.3974H91.5592V55.6335C91.5592 56.3508 91.2247 57.0387 90.6293 57.5459C90.0339 58.0531 89.2264 58.3381 88.3844 58.3381H4.7119C3.86989 58.3381 3.06237 58.0531 2.46698 57.5459C1.87159 57.0387 1.53711 56.3508 1.53711 55.6335V49.3974H1.52002Z" fill="white" stroke="#2E353A" stroke-width="1.09543" stroke-linecap="round" stroke-linejoin="round"/>
<path d="M87.0277 4.39114H6.04813V45.0333H87.0277V4.39114Z" fill="#7159C1" stroke="#2E353A" stroke-width="1.09543" stroke-linecap="round" stroke-linejoin="round"/>
<path d="M48.1988 53.8692C48.1994 53.5892 48.1026 53.3154 47.9205 53.0823C47.7384 52.8492 47.4793 52.6674 47.1759 52.5599C46.8724 52.4524 46.5384 52.4239 46.216 52.4782C45.8936 52.5325 45.5973 52.667 45.3647 52.8647C45.1321 53.0625 44.9736 53.3146 44.9092 53.5892C44.8448 53.8637 44.8775 54.1483 45.0031 54.407C45.1287 54.6658 45.3416 54.8869 45.6148 55.0425C45.888 55.1981 46.2093 55.2812 46.5379 55.2812C46.7558 55.2815 46.9717 55.2453 47.1732 55.1745C47.3747 55.1037 47.5578 54.9998 47.7121 54.8686C47.8664 54.7375 47.9888 54.5817 48.0723 54.4102C48.1558 54.2387 48.1988 54.0548 48.1988 53.8692V53.8692Z" fill="#2E353A" stroke="#2E353A" stroke-width="1.09543" stroke-linecap="round" stroke-linejoin="round"/>
<path d="M61.1064 69.6544H31.9762V70.8102H61.1064V69.6544Z" fill="white" stroke="#2E353A" stroke-width="1.09543" stroke-linecap="round" stroke-linejoin="round"/>
<path d="M80.9498 15.9124C82.1577 15.0935 83.0498 14.0863 83.5477 12.9794C84.0456 11.8724 84.134 10.6996 83.8052 9.56412L77.263 13.9919C76.8912 14.2421 76.3882 14.3825 75.8639 14.3825C75.3396 14.3825 74.8366 14.2421 74.4648 13.9919L69.0269 10.3115C68.8427 10.187 68.6965 10.0392 68.5968 9.87648C68.497 9.71375 68.4457 9.5393 68.4457 9.36312C68.4457 9.18695 68.497 9.0125 68.5968 8.84976C68.6965 8.68703 68.8427 8.5392 69.0269 8.41474L75.5647 3.98997C73.7325 3.74779 71.8378 3.84285 70.0783 4.26521C68.3188 4.68757 66.759 5.42176 65.5617 6.39118C64.3644 7.3606 63.5735 8.52972 63.2714 9.77656C62.9693 11.0234 63.1671 12.3023 63.8442 13.4797L46.9629 24.6429L45.3351 23.5382L47.9748 21.7516C48.1097 21.6586 48.1853 21.5335 48.1853 21.4032C48.1853 21.2729 48.1097 21.1478 47.9748 21.0548L45.9158 19.6613C45.7797 19.5695 45.5954 19.5179 45.4032 19.5179C45.2111 19.5179 45.0268 19.5695 44.8907 19.6613L43.8612 20.3581L41.6306 18.8514L42.4885 18.2707C42.6701 18.1474 42.7721 17.9804 42.7721 17.8062C42.7721 17.6321 42.6701 17.4651 42.4885 17.3417L24.0674 4.87433C23.6285 4.57686 23.1073 4.34087 22.5336 4.17986C21.9598 4.01885 21.3448 3.93597 20.7237 3.93597C20.1026 3.93597 19.4876 4.01885 18.9138 4.17986C18.3401 4.34087 17.8189 4.57686 17.38 4.87433L15.497 6.14876C15.0576 6.44553 14.709 6.79803 14.4711 7.18609C14.2333 7.57416 14.1109 7.99015 14.1109 8.41028C14.1109 8.8304 14.2333 9.2464 14.4711 9.63446C14.709 10.0225 15.0576 10.375 15.497 10.6718L33.9181 23.1422C34.1003 23.2651 34.3471 23.3341 34.6044 23.3341C34.8617 23.3341 35.1085 23.2651 35.2908 23.1422L36.1487 22.5615L38.3749 24.0712L37.3498 24.765C37.2819 24.8106 37.2281 24.8649 37.1914 24.9247C37.1546 24.9845 37.1357 25.0486 37.1357 25.1134C37.1357 25.1781 37.1546 25.2422 37.1914 25.302C37.2281 25.3618 37.2819 25.4161 37.3498 25.4618L39.4044 26.8553C39.5418 26.9466 39.7266 26.9977 39.9191 26.9977C40.1117 26.9977 40.2965 26.9466 40.4339 26.8553L43.0737 25.0687L44.6751 26.1526L30.6756 35.3833C28.9356 34.9253 27.046 34.7916 25.2038 34.9962C23.3615 35.2007 21.634 35.736 20.2015 36.5462C18.7689 37.3564 17.6837 38.4118 17.059 39.6025C16.4342 40.7932 16.2929 42.0755 16.6497 43.3157L23.1919 38.8909C23.3758 38.7662 23.5942 38.6673 23.8346 38.5998C24.0751 38.5323 24.3328 38.4976 24.5931 38.4976C24.8534 38.4976 25.1112 38.5323 25.3517 38.5998C25.5921 38.6673 25.8105 38.7662 25.9944 38.8909L31.4499 42.5475C31.6342 42.6719 31.7803 42.8198 31.8801 42.9825C31.9798 43.1452 32.0311 43.3197 32.0311 43.4958C32.0311 43.672 31.9798 43.8465 31.8801 44.0092C31.7803 44.1719 31.6342 44.3198 31.4499 44.4442L24.9121 48.869C26.7444 49.1108 28.639 49.0155 30.3984 48.5931C32.1577 48.1707 33.7175 47.4366 34.915 46.4674C36.1125 45.4981 36.904 44.3292 37.2069 43.0825C37.5097 41.8358 37.313 40.557 36.637 39.3793L50.6366 30.1486L69.7264 43.0537C69.4521 43.5321 69.3893 44.0543 69.5455 44.5565C69.7017 45.0587 70.0703 45.5194 70.6064 45.8824L75.2127 49L80.7386 45.2571L76.1323 42.1425C75.5959 41.7797 74.9152 41.5303 74.1732 41.4245C73.4311 41.3188 72.6596 41.3613 71.9526 41.547L52.8936 28.6478L69.7924 17.4966C71.6788 17.9933 73.738 18.108 75.719 17.8267C77.7 17.5455 79.5174 16.8804 80.9498 15.9124V15.9124Z" fill="#2E353A" stroke="#2E353A" stroke-width="1.09543" stroke-linecap="round" stroke-linejoin="round"/>
<path d="M35.4755 37.7922L68.6177 15.9095C70.3587 16.3684 72.2498 16.5025 74.0935 16.2977C75.9372 16.0929 77.6658 15.5568 79.0986 14.7452C80.5314 13.9337 81.6159 12.8767 82.2388 11.6845C82.8616 10.4923 82.9999 9.20881 82.6393 7.96809L76.1014 12.3929C75.9176 12.5176 75.6991 12.6165 75.4587 12.684C75.2182 12.7515 74.9605 12.7862 74.7002 12.7862C74.4399 12.7862 74.1821 12.7515 73.9417 12.684C73.7012 12.6165 73.4828 12.5176 73.2989 12.3929L67.861 8.7125C67.6769 8.5883 67.5308 8.44072 67.4311 8.27824C67.3315 8.11575 67.2802 7.94155 67.2802 7.76561C67.2802 7.58968 67.3315 7.41547 67.4311 7.25299C67.5308 7.0905 67.6769 6.94292 67.861 6.81872L74.3988 2.39097C72.5656 2.14917 70.6702 2.2449 68.9103 2.66817C67.1505 3.09143 65.5908 3.82671 64.3942 4.79721C63.1976 5.76771 62.4079 6.93785 62.1076 8.18543C61.8073 9.43301 62.0074 10.7123 62.6871 11.8896L29.5449 33.7723C27.8051 33.3141 25.9156 33.1802 24.0733 33.3847C22.231 33.5891 20.5036 34.1245 19.0712 34.9348C17.6389 35.7451 16.5541 36.8008 15.93 37.9916C15.306 39.1824 15.1655 40.4647 15.5233 41.7048L22.0612 37.28C22.245 37.1553 22.4635 37.0564 22.7039 36.9889C22.9444 36.9214 23.2021 36.8867 23.4624 36.8867C23.7227 36.8867 23.9805 36.9214 24.2209 36.9889C24.4614 37.0564 24.6798 37.1553 24.8637 37.28L30.3016 40.9604C30.4857 41.0846 30.6318 41.2322 30.7315 41.3946C30.8311 41.5571 30.8824 41.7313 30.8824 41.9073C30.8824 42.0832 30.8311 42.2574 30.7315 42.4199C30.6318 42.5824 30.4857 42.73 30.3016 42.8542L23.7506 47.273C25.5829 47.5148 27.4775 47.4195 29.2368 46.9971C30.9962 46.5747 32.556 45.8406 33.7535 44.8713C34.951 43.9021 35.7425 42.7332 36.0453 41.4865C36.3482 40.2398 36.1515 38.961 35.4755 37.7832V37.7922Z" fill="white" stroke="#2E353A" stroke-miterlimit="10"/>
<path d="M32.9238 35.4964C32.6704 35.3245 32.5282 35.0916 32.5282 34.8488C32.5282 34.6059 32.6704 34.373 32.9238 34.2011L62.7223 14.5814C62.977 14.4098 63.3219 14.3134 63.6814 14.3134C64.0409 14.3134 64.3857 14.4098 64.6405 14.5814V14.5814C64.8941 14.7539 65.0365 14.9873 65.0365 15.2306C65.0365 15.4739 64.8941 15.7073 64.6405 15.8797L34.842 35.4964C34.5872 35.668 34.2424 35.7644 33.8829 35.7644C33.5234 35.7644 33.1786 35.668 32.9238 35.4964V35.4964Z" fill="white" stroke="#2E353A" stroke-miterlimit="10"/>
<path d="M41.7614 20.3117L39.5339 21.8193L71.6735 43.5713L73.901 42.0638L41.7614 20.3117Z" fill="white" stroke="#2E353A" stroke-miterlimit="10"/>
<path d="M79.5727 43.67L74.0468 47.41L69.4405 44.2954C68.7073 43.799 68.2954 43.1258 68.2954 42.4239C68.2954 41.722 68.7073 41.0489 69.4405 40.5525V40.5525C69.8033 40.3068 70.234 40.112 70.7081 39.9791C71.1821 39.8462 71.6903 39.7777 72.2034 39.7777C72.7166 39.7777 73.2247 39.8462 73.6987 39.9791C74.1728 40.112 74.6036 40.3068 74.9664 40.5525L79.5727 43.67Z" fill="white" stroke="#2E353A" stroke-miterlimit="10"/>
<path d="M38.7634 16.0787L33.2787 19.7907L37.7336 22.8058L43.2183 19.0938L38.7634 16.0787Z" fill="white" stroke="#2E353A" stroke-miterlimit="10"/>
<path d="M14.3412 4.53723L16.2265 3.26129C16.6652 2.96433 17.1861 2.72877 17.7594 2.56806C18.3327 2.40734 18.9471 2.32462 19.5677 2.32462C20.1882 2.32462 20.8026 2.40734 21.3759 2.56805C21.9492 2.72877 22.4701 2.96433 22.9089 3.26129L41.3321 15.7301C41.5136 15.853 41.6156 16.0196 41.6156 16.1933C41.6156 16.3671 41.5136 16.5337 41.3321 16.6566L34.1333 21.5287C33.9518 21.6516 33.7056 21.7206 33.4489 21.7206C33.1922 21.7206 32.946 21.6516 32.7645 21.5287L14.3412 9.05987C13.4551 8.46013 12.9572 7.64671 12.9572 6.79855C12.9572 5.95039 13.4551 5.13697 14.3412 4.53723Z" fill="white" stroke="#2E353A" stroke-miterlimit="10"/>
<path d="M43.7311 18.0526L36.1901 23.1564C35.9066 23.3483 35.9066 23.6594 36.1901 23.8512L38.2495 25.2451C38.533 25.4369 38.9927 25.4369 39.2762 25.2451L46.8172 20.1413C47.1007 19.9494 47.1007 19.6384 46.8172 19.4465L44.7577 18.0526C44.4742 17.8608 44.0146 17.8608 43.7311 18.0526Z" fill="white" stroke="#2E353A" stroke-miterlimit="10"/>
<path d="M35.1632 19.6762L33.6497 20.7034L15.5586 8.45937C15.3573 8.32312 15.2443 8.13837 15.2443 7.94573C15.2443 7.75308 15.3573 7.56833 15.5586 7.43208V7.43208C15.6579 7.36429 15.7762 7.31048 15.9064 7.27377C16.0367 7.23705 16.1764 7.21814 16.3175 7.21814C16.4586 7.21814 16.5983 7.23705 16.7285 7.27377C16.8588 7.31048 16.977 7.36429 17.0764 7.43208L35.1632 19.6762Z" fill="white" stroke="#2E353A" stroke-miterlimit="10"/>
<path d="M37.7457 17.9283L36.2235 18.9556L18.1323 6.71153C17.9311 6.57529 17.8181 6.39053 17.8181 6.19789C17.8181 6.00525 17.9311 5.82049 18.1323 5.68425V5.68425C18.2317 5.61646 18.3499 5.56265 18.4802 5.52593C18.6104 5.48921 18.7502 5.47031 18.8913 5.47031C19.0324 5.47031 19.1721 5.48921 19.3023 5.52593C19.4326 5.56265 19.5508 5.61646 19.6502 5.68425L37.7457 17.9283Z" fill="white" stroke="#2E353A" stroke-miterlimit="10"/>
<path d="M40.3283 16.1804L38.806 17.1987L20.7149 4.96361C20.5137 4.82736 20.4006 4.64261 20.4006 4.44996C20.4006 4.25732 20.5137 4.07257 20.7149 3.93632V3.93632C20.8143 3.86853 20.9325 3.81472 21.0628 3.778C21.193 3.74128 21.3327 3.72238 21.4738 3.72238C21.6149 3.72238 21.7546 3.74128 21.8849 3.778C22.0151 3.81472 22.1334 3.86853 22.2328 3.93632L40.3283 16.1804Z" fill="white" stroke="#2E353A" stroke-miterlimit="10"/>
</svg>
